<svg id="visual" viewBox="0 0 960 540" width="960" height="540" xmlns="http://www.w3.org/2000/svg" xmlns:xlink="http://www.w3.org/1999/xlink" version="1.1"><rect x="0" y="0" width="960" height="540" fill="#001122"></rect><defs><linearGradient id="grad1_0" x1="43.8%" y1="0%" x2="100%" y2="100%"><stop offset="14.444444444444446%" stop-color="#0066ff" stop-opacity="1"></stop><stop offset="85.55555555555554%" stop-color="#0066ff" stop-opacity="1"></stop></linearGradient></defs><defs><linearGradient id="grad1_1" x1="43.8%" y1="0%" x2="100%" y2="100%"><stop offset="14.444444444444446%" stop-color="#0066ff" stop-opacity="1"></stop><stop offset="85.55555555555554%" stop-color="#004db2" stop-opacity="1"></stop></linearGradient></defs><defs><linearGradient id="grad1_2" x1="43.8%" y1="0%" x2="100%" y2="100%"><stop offset="14.444444444444446%" stop-color="#003067" stop-opacity="1"></stop><stop offset="85.55555555555554%" stop-color="#004db2" stop-opacity="1"></stop></linearGradient></defs><defs><linearGradient id="grad1_3" x1="43.8%" y1="0%" x2="100%" y2="100%"><stop offset="14.444444444444446%" stop-color="#003067" stop-opacity="1"></stop><stop offset="85.55555555555554%" stop-color="#001122" stop-opacity="1"></stop></linearGradient></defs><defs><linearGradient id="grad2_0" x1="0%" y1="0%" x2="56.3%" y2="100%"><stop offset="14.444444444444446%" stop-color="#0066ff" stop-opacity="1"></stop><stop offset="85.55555555555554%" stop-color="#0066ff" stop-opacity="1"></stop></linearGradient></defs><defs><linearGradient id="grad2_1" x1="0%" y1="0%" x2="56.3%" y2="100%"><stop offset="14.444444444444446%" stop-color="#004db2" stop-opacity="1"></stop><stop offset="85.55555555555554%" stop-color="#0066ff" stop-opacity="1"></stop></linearGradient></defs><defs><linearGradient id="grad2_2" x1="0%" y1="0%" x2="56.3%" y2="100%"><stop offset="14.444444444444446%" stop-color="#004db2" stop-opacity="1"></stop><stop offset="85.55555555555554%" stop-color="#003067" stop-opacity="1"></stop></linearGradient></defs><defs><linearGradient id="grad2_3" x1="0%" y1="0%" x2="56.3%" y2="100%"><stop offset="14.444444444444446%" stop-color="#001122" stop-opacity="1"></stop><stop offset="85.55555555555554%" stop-color="#003067" stop-opacity="1"></stop></linearGradient></defs><g transform="translate(960, 0)"><path d="M0 486C-93.3 478.1 -186.6 470.1 -243 420.9C-299.4 371.6 -319 281 -353.3 204C-387.7 127 -436.8 63.5 -486 0L0 0Z" fill="#002143"></path><path d="M0 364.5C-70 358.6 -139.9 352.6 -182.2 315.7C-224.6 278.7 -239.2 210.8 -265 153C-290.8 95.2 -327.6 47.6 -364.5 0L0 0Z" fill="#003e8c"></path><path d="M0 243C-46.6 239 -93.3 235.1 -121.5 210.4C-149.7 185.8 -159.5 140.5 -176.7 102C-193.8 63.5 -218.4 31.7 -243 0L0 0Z" fill="#005ad9"></path><path d="M0 121.5C-23.3 119.5 -46.6 117.5 -60.7 105.2C-74.9 92.9 -79.7 70.3 -88.3 51C-96.9 31.7 -109.2 15.9 -121.5 0L0 0Z" fill="#0066ff"></path></g><g transform="translate(0, 540)"><path d="M0 -486C88.8 -475.5 177.6 -464.9 243 -420.9C308.4 -376.8 350.5 -299.2 387.1 -223.5C423.7 -147.8 454.9 -73.9 486 0L0 0Z" fill="#002143"></path><path d="M0 -364.5C66.6 -356.6 133.2 -348.7 182.2 -315.7C231.3 -282.6 262.9 -224.4 290.3 -167.6C317.8 -110.8 341.1 -55.4 364.5 0L0 0Z" fill="#003e8c"></path><path d="M0 -243C44.4 -237.7 88.8 -232.5 121.5 -210.4C154.2 -188.4 175.3 -149.6 193.6 -111.8C211.9 -73.9 227.4 -36.9 243 0L0 0Z" fill="#005ad9"></path><path d="M0 -121.5C22.2 -118.9 44.4 -116.2 60.7 -105.2C77.1 -94.2 87.6 -74.8 96.8 -55.9C105.9 -36.9 113.7 -18.5 121.5 0L0 0Z" fill="#0066ff"></path></g></svg>